<svg width="19" height="25" viewBox="0 0 19 25" fill="none" xmlns="http://www.w3.org/2000/svg">
<path d="M6.78634 22.0893C7.31125 21.9783 10.5097 21.9783 11.0347 22.0893C11.4834 22.1929 11.9686 22.4351 11.9686 22.9639C11.9425 23.4673 11.6472 23.9135 11.2392 24.1969C10.7101 24.6094 10.0892 24.8706 9.4401 24.9647C9.08112 25.0112 8.72839 25.0123 8.38193 24.9647C7.7318 24.8706 7.11089 24.6094 6.58285 24.1959C6.17377 23.9135 5.87845 23.4673 5.85236 22.9639C5.85236 22.4351 6.33761 22.1929 6.78634 22.0893ZM8.97248 4C11.1566 4 13.3878 5.03637 14.7131 6.7559C15.573 7.86312 15.9674 8.96929 15.9674 10.6888V11.1361C15.9674 12.4549 16.316 13.2322 17.083 14.1279C17.6642 14.7878 17.85 15.6348 17.85 16.5538C17.85 17.4717 17.5484 18.3431 16.9442 19.0506C16.1532 19.8988 15.0376 20.4402 13.8991 20.5343C12.2492 20.675 10.5983 20.7934 8.92552 20.7934C7.25166 20.7934 5.6018 20.7226 3.95194 20.5343C2.81238 20.4402 1.69682 19.8988 0.906849 19.0506C0.302631 18.3431 0 17.4717 0 16.5538C0 15.6348 0.186796 14.7878 0.767013 14.1279C1.55803 13.2322 1.88362 12.4549 1.88362 11.1361V10.6888C1.88362 8.92276 2.324 7.76794 3.23085 6.63746C4.57912 4.98878 6.74032 4 8.87856 4H8.97248Z" fill="#200E32"/>
<circle cx="14" cy="5" r="4.5" fill="#784EFA" stroke="white"/>
</svg>
