<svg width="20" height="24" viewBox="0 0 20 24" fill="none" xmlns="http://www.w3.org/2000/svg">
<path d="M13.0819 0C16.7287 0 19.053 1.70885 19.053 5.07008V21.8287C19.053 22.3559 18.8488 22.8615 18.4852 23.2342C18.1217 23.607 17.6285 23.8163 17.1011 23.8163C16.7864 23.8112 16.477 23.7319 16.1788 23.5747L9.49555 19.8432L2.8394 23.5825C2.03773 24.0097 1.06631 23.8126 0.45764 23.0989L0.3409 22.9493L0.229381 22.7653C0.0838519 22.4804 0.005338 22.1646 0 21.8287V5.28048C0 1.78538 2.27344 0 5.97115 0H13.0819ZM13.0819 1.724H5.97115C3.11904 1.724 1.68149 2.85294 1.68149 5.28048L1.68137 21.8144C1.68223 21.867 1.69508 21.9187 1.6811 21.8987L1.72572 21.9728C1.80257 22.0802 1.94681 22.1152 2.04774 22.0617L8.70108 18.3246C9.19698 18.0499 9.79449 18.0499 10.2928 18.3259L16.9647 22.0507C17.0152 22.0773 17.071 22.0916 17.1144 22.0924C17.1826 22.0924 17.248 22.0646 17.2962 22.0152C17.3445 21.9657 17.3715 21.8987 17.3715 21.8287V5.07008C17.3715 2.8078 15.8974 1.724 13.0819 1.724ZM13.5847 7.52194C14.049 7.52194 14.4254 7.90787 14.4254 8.38394C14.4254 8.82033 14.1091 9.18099 13.6988 9.23807L13.5847 9.24594H5.4068C4.94247 9.24594 4.56606 8.86001 4.56606 8.38394C4.56606 7.94754 4.88235 7.58689 5.29272 7.52981L5.4068 7.52194H13.5847Z" fill="#200E32"/>
</svg>
