<svg width="22" height="24" viewBox="0 0 22 24" fill="none" xmlns="http://www.w3.org/2000/svg">
<path d="M15.3175 0C19.1233 0 21.3989 2.28636 21.4347 6.11126V17.6133C21.4347 21.4918 19.1531 23.8163 15.3175 23.8163H6.11841C5.62779 23.8163 5.16218 23.7782 4.72396 23.7032L4.46436 23.6543C1.64094 23.0673 0 20.9048 0 17.6133V6.20295C0 5.80522 0.0238163 5.42416 0.0714489 5.05977C0.487043 1.86243 2.6841 0 6.11841 0H15.3175ZM15.3067 1.73502H6.11841C3.19376 1.73502 1.7112 3.23902 1.7112 6.20295V17.6133C1.7112 20.5773 3.19376 22.0813 6.11841 22.0813H15.3067C18.2302 22.0813 19.7032 20.5773 19.7032 17.6133V6.20295C19.7032 3.23902 18.2302 1.73502 15.3067 1.73502ZM14.9959 16.0879C15.4651 16.0879 15.845 16.4737 15.845 16.9501C15.845 17.4264 15.4651 17.8122 14.9959 17.8122H6.40896C5.93978 17.8122 5.55872 17.4264 5.55872 16.9501C5.55872 16.4737 5.93978 16.0879 6.40896 16.0879H14.9959ZM14.9959 11.04C15.3234 11.0043 15.6437 11.1615 15.8188 11.4437C15.9938 11.7283 15.9938 12.088 15.8188 12.3726C15.6437 12.6548 15.3234 12.812 14.9959 12.7763H6.40896C5.97313 12.7262 5.64327 12.3535 5.64327 11.9081C5.64327 11.4628 5.97313 11.0889 6.40896 11.04H14.9959ZM9.68609 6.00409C10.1219 6.05291 10.4518 6.42683 10.4518 6.87219C10.4518 7.31637 10.1219 7.69028 9.68609 7.73911H6.41968C5.98265 7.69028 5.6528 7.31637 5.6528 6.87219C5.6528 6.42683 5.98265 6.05291 6.41968 6.00409H9.68609Z" fill="#200E32"/>
</svg>
