<svg width="23" height="24" viewBox="0 0 23 24" fill="none" xmlns="http://www.w3.org/2000/svg">
<path d="M8.60959 0.938348C10.1219 -0.263184 12.2416 -0.310817 13.8004 0.79545L13.9921 0.938348L21.2429 6.73881C22.0408 7.35684 22.5302 8.27496 22.6136 9.27405L22.6255 9.51341V19.1697C22.6255 21.6585 20.6594 23.6829 18.1957 23.8139H15.8259C14.6935 23.7913 13.7777 22.9101 13.6944 21.8026L13.6825 21.6347V18.2302C13.6825 17.8598 13.4074 17.5514 13.0394 17.4907L12.9323 17.4788H9.75158C9.37171 17.4907 9.0621 17.7646 9.01447 18.1218L9.00256 18.2302V21.624C9.00256 21.6943 8.98946 21.7776 8.97874 21.8372L8.96684 21.8622L8.95374 21.9443C8.81203 22.9577 7.97846 23.7305 6.94245 23.8032L6.78764 23.8139H4.65609C2.16728 23.8139 0.13099 21.8622 0 19.4079V9.51341C0.0107173 8.50002 0.45251 7.55928 1.19081 6.90433L8.60959 0.938348ZM12.9561 2.23634C12.051 1.50994 10.765 1.47541 9.81231 2.10535L9.6325 2.23634L2.39235 8.07252C1.97675 8.38094 1.72668 8.84536 1.66714 9.33359L1.65404 9.52412V19.1697C1.65404 20.7535 2.89249 22.0515 4.46556 22.1468H6.78764C7.04962 22.1468 7.27588 21.9693 7.31041 21.7193L7.33542 21.5049L7.34733 21.4442V18.2302C7.34733 16.956 8.3238 15.92 9.57415 15.8235H12.9323C14.2052 15.8235 15.2412 16.8012 15.3377 18.0515V21.6347C15.3377 21.8848 15.5163 22.1003 15.7545 22.1468H17.9682C19.5639 22.1468 20.8619 20.9214 20.9571 19.3603L20.9702 19.1697V9.52412C20.9571 9.01326 20.744 8.53575 20.3748 8.17969L20.22 8.04751L12.9561 2.23634Z" fill="#200E32"/>
</svg>
