<svg width="24" height="24" viewBox="0 0 24 24" fill="none" xmlns="http://www.w3.org/2000/svg">
<path d="M11.4456 0C17.7668 0 22.8911 5.01118 22.8911 11.1928C22.8911 14.11 21.7499 16.7666 19.8802 18.7588L23.5573 22.344C23.902 22.6802 23.9027 23.226 23.5589 23.563C23.2464 23.8695 22.7567 23.8979 22.4113 23.648L22.3124 23.5646L18.5918 19.9363C16.6335 21.469 14.149 22.3856 11.4456 22.3856C5.12435 22.3856 0 17.3744 0 11.1928C0 5.01118 5.12435 0 11.4456 0ZM11.4456 1.72399C6.09799 1.72399 1.76293 5.96331 1.76293 11.1928C1.76293 16.4222 6.09799 20.6616 11.4456 20.6616C16.7931 20.6616 21.1282 16.4222 21.1282 11.1928C21.1282 5.96331 16.7931 1.72399 11.4456 1.72399Z" fill="white"/>
</svg>
